<svg xmlns="http://www.w3.org/2000/svg" width="125" height="60" viewBox="0 0 125 60" fill="none">
  <rect width="125" height="60.0001" rx="6" fill="#07221D"/>
  <g clip-path="url(#clip0_3574_90)">
    <path d="M35.1874 26.9629H31.9795V25.0926H40.6756V26.9629H37.4754V35.659H35.1759L35.1874 26.9629Z" fill="#F5853B"/>
    <path d="M51.3301 35.659H49.6553C49.5643 35.3177 49.5053 34.9687 49.479 34.6165C48.8926 35.406 47.8616 35.8353 46.3938 35.8353C43.3277 35.8353 41.6107 33.5166 41.6107 30.508C41.6107 27.3308 43.458 24.9393 46.7923 24.9393C49.5096 24.9393 51.1116 26.4723 51.3646 28.2736H49.0651C48.8504 27.5684 48.2985 26.7406 46.7464 26.7406C44.5733 26.7406 43.9562 28.5572 43.9562 30.4199C43.9562 32.2825 44.6653 34.0301 46.7579 34.0301C48.7125 34.0301 49.0574 32.6734 49.0574 31.7306V31.6348H46.7387V29.7607H51.3301V35.659Z" fill="#F5853B"/>
    <path d="M63.0348 32.4013C62.6094 34.3712 61.1185 35.8084 58.4778 35.8084C55.1244 35.8084 53.5415 33.4361 53.5415 30.4428C53.5415 27.5454 55.1742 24.9508 58.5852 24.9508C61.3983 24.9508 62.7627 26.6026 63.0233 28.3694H60.7237C60.5053 27.5531 59.9572 26.7406 58.5008 26.7406C56.6152 26.7406 55.8909 28.4384 55.8909 30.3585C55.8909 32.1445 56.5194 34.0301 58.5737 34.0301C59.0664 34.0568 59.5529 33.9095 59.948 33.6138C60.3432 33.3182 60.6218 32.8931 60.7352 32.4128L63.0348 32.4013Z" fill="white"/>
    <path d="M67.1587 33.2176L66.3347 35.659H64.085L67.6761 25.0926H70.5467L74.2873 35.659H71.8881L71.0181 33.2176H67.1587ZM70.5275 31.3435C69.761 29.1168 69.2973 27.6911 69.0443 26.7444C68.7837 27.7869 68.2548 29.4272 67.6531 31.3435H70.5275Z" fill="white"/>
    <path d="M77.7442 32.5623C77.9856 33.6239 78.7483 34.0953 79.9709 34.0953C81.1935 34.0953 81.7109 33.6124 81.7109 32.842C81.7109 31.9797 81.2011 31.6079 79.4113 31.1864C76.5331 30.5118 75.8241 29.4655 75.8241 28.0398C75.8241 26.1964 77.1999 24.9469 79.7026 24.9469C82.5081 24.9469 83.6272 26.4531 83.7766 28.013H81.4771C81.3659 27.3615 81.0057 26.6563 79.6451 26.6563C78.7176 26.6563 78.1581 27.0395 78.1581 27.7869C78.1581 28.5342 78.6065 28.8217 80.312 29.2164C83.378 29.9408 84.0602 31.0829 84.0602 32.5738C84.0602 34.49 82.6 35.8276 79.8061 35.8276C77.1233 35.8276 75.7129 34.5054 75.46 32.5814L77.7442 32.5623Z" fill="white"/>
    <path d="M88.4026 25.0926V35.659H86.103V25.0926H88.4026Z" fill="white"/>
    <path d="M91.3115 35.659V25.0926H94.1438C95.4622 27.4649 97.9035 31.7421 98.3903 32.8957H98.4171C98.2983 31.7919 98.3021 29.9561 98.3021 28.2238V25.0926H100.372V35.659H97.6889C96.5391 33.5932 93.8563 28.6799 93.3275 27.4573H93.2968C93.3734 28.3809 93.4003 30.554 93.4003 32.4396V35.6551L91.3115 35.659Z" fill="white"/>
    <path d="M112.996 30.3509C112.996 33.2904 111.229 35.8238 107.799 35.8238C104.48 35.8238 102.748 33.4131 102.748 30.3854C102.748 27.3576 104.664 24.9508 107.945 24.9508C111.038 24.9393 112.996 27.1047 112.996 30.3509ZM105.105 30.3509C105.105 32.4166 106.013 33.9765 107.884 33.9765C109.919 33.9765 110.635 32.2748 110.635 30.3892C110.635 28.3924 109.819 26.8211 107.849 26.8211C105.94 26.7981 105.105 28.2736 105.105 30.3279V30.3509Z" fill="white"/>
    <path d="M25.3568 29.3812L19.3895 23.4178C19.2578 23.2857 19.1013 23.1808 18.929 23.1093C18.7567 23.0378 18.572 23.001 18.3854 23.001C18.1988 23.001 18.0141 23.0378 17.8418 23.1093C17.6695 23.1808 17.513 23.2857 17.3813 23.4178L11.414 29.3812C11.2819 29.513 11.177 29.6695 11.1055 29.8418C11.034 30.0141 10.9972 30.1988 10.9972 30.3854C10.9972 30.5719 11.034 30.7567 11.1055 30.929C11.177 31.1013 11.2819 31.2578 11.414 31.3895L17.3813 37.3568C17.513 37.4889 17.6695 37.5937 17.8418 37.6652C18.0141 37.7368 18.1988 37.7736 18.3854 37.7736C18.572 37.7736 18.7567 37.7368 18.929 37.6652C19.1013 37.5937 19.2578 37.4889 19.3895 37.3568L25.3568 31.3895C25.489 31.2578 25.5938 31.1013 25.6653 30.929C25.7368 30.7567 25.7736 30.5719 25.7736 30.3854C25.7736 30.1988 25.7368 30.0141 25.6653 29.8418C25.5938 29.6695 25.489 29.513 25.3568 29.3812ZM15.0511 31.0216C14.9663 31.1065 14.8657 31.1739 14.7549 31.2199C14.644 31.2659 14.5253 31.2895 14.4053 31.2895C14.2853 31.2895 14.1665 31.2659 14.0557 31.2199C13.9449 31.1739 13.8442 31.1065 13.7595 31.0216C13.674 30.9368 13.6061 30.8359 13.5598 30.7247C13.5134 30.6135 13.4896 30.4943 13.4896 30.3739C13.4896 30.2534 13.5134 30.1342 13.5598 30.023C13.6061 29.9119 13.674 29.811 13.7595 29.7262C13.8442 29.6412 13.9449 29.5738 14.0557 29.5279C14.1665 29.4819 14.2853 29.4582 14.4053 29.4582C14.5253 29.4582 14.644 29.4819 14.7549 29.5279C14.8657 29.5738 14.9663 29.6412 15.0511 29.7262C15.1366 29.811 15.2045 29.9119 15.2508 30.023C15.2971 30.1342 15.3209 30.2534 15.3209 30.3739C15.3209 30.4943 15.2971 30.6135 15.2508 30.7247C15.2045 30.8359 15.1366 30.9368 15.0511 31.0216ZM17.7339 25.748C17.9061 25.5771 18.1389 25.4812 18.3816 25.4812C18.6242 25.4812 18.857 25.5771 19.0293 25.748C19.2001 25.9202 19.296 26.153 19.296 26.3957C19.296 26.6383 19.2001 26.8711 19.0293 27.0434C18.9445 27.1289 18.8436 27.1968 18.7324 27.2431C18.6212 27.2894 18.502 27.3133 18.3816 27.3133C18.2611 27.3133 18.1419 27.2894 18.0307 27.2431C17.9196 27.1968 17.8187 27.1289 17.7339 27.0434C17.5642 26.8713 17.469 26.6393 17.469 26.3976C17.469 26.1559 17.5642 25.9239 17.7339 25.7518V25.748ZM19.0254 34.9959C18.8532 35.1668 18.6204 35.2627 18.3777 35.2627C18.1351 35.2627 17.9023 35.1668 17.73 34.9959C17.5592 34.8237 17.4633 34.5909 17.4633 34.3482C17.4633 34.1056 17.5592 33.8728 17.73 33.7005C17.8148 33.615 17.9157 33.5471 18.0269 33.5008C18.1381 33.4545 18.2573 33.4306 18.3777 33.4306C18.4982 33.4306 18.6174 33.4545 18.7286 33.5008C18.8397 33.5471 18.9406 33.615 19.0254 33.7005C19.1963 33.8728 19.2922 34.1056 19.2922 34.3482C19.2922 34.5909 19.1963 34.8237 19.0254 34.9959ZM19.0254 31.0331C18.8532 31.2039 18.6204 31.2998 18.3777 31.2998C18.1351 31.2998 17.9023 31.2039 17.73 31.0331C17.5592 30.8608 17.4633 30.628 17.4633 30.3854C17.4633 30.1427 17.5592 29.9099 17.73 29.7377C17.9023 29.5668 18.1351 29.4709 18.3777 29.4709C18.6204 29.4709 18.8532 29.5668 19.0254 29.7377C19.1973 29.9089 19.2946 30.1412 19.296 30.3838C19.2974 30.6264 19.2029 30.8598 19.0331 31.0331H19.0254ZM22.9921 31.0331C22.8199 31.2039 22.5871 31.2998 22.3444 31.2998C22.1018 31.2998 21.869 31.2039 21.6967 31.0331C21.5259 30.8608 21.43 30.628 21.43 30.3854C21.43 30.1427 21.5259 29.9099 21.6967 29.7377C21.7815 29.6521 21.8824 29.5843 21.9936 29.538C22.1048 29.4916 22.224 29.4678 22.3444 29.4678C22.4649 29.4678 22.5841 29.4916 22.6953 29.538C22.8065 29.5843 22.9073 29.6521 22.9921 29.7377C23.1594 29.9083 23.2538 30.1372 23.2552 30.3761C23.2566 30.6151 23.165 30.8452 22.9998 31.0177L22.9921 31.0331Z" fill="white"/>
  </g>
  <defs>
    <clipPath id="clip0_3574_90">
      <rect width="102" height="14.7746" fill="white" transform="translate(11 23)"/>
    </clipPath>
  </defs>
</svg>